{
.appVersion = "3091";
.formatVersion = 3;
date = "2021-07-15 13:20:38 +0000";
familyName = EorzeaMaru;
fontMaster = (
{
id = m01;
metricValues = (
{
over = 16;
pos = 800;
},
{
over = 16;
pos = 700;
},
{
over = 16;
pos = 500;
},
{
over = -16;
},
{
over = -16;
pos = -200;
}
);
name = Regular;
}
);
glyphs = (
{
glyphname = a;
lastChange = "2021-05-18 16:04:05 +0000";
layers = (
{
layerId = m01;
shapes = (
{
attr = {
fillColor = (0,255);
};
closed = 1;
nodes = (
(535,14,o),
(490,-1,o),
(448,-2,c),
(350,-2,o),
(252,100,o),
(252,100,c),
(252,100,o),
(255,42,o),
(242,2,c),
(230,-36,o),
(201,-71,o),
(176,-104,c),
(153,-134,o),
(147,-200,o),
(100,-200,c),
(52,-200,o),
(49,-133,o),
(54,-102,c),
(59,-70,o),
(122,-50,o),
(119,-4,c),
(118,31,o),
(93,84,o),
(57,126,c),
(10,179,o),
(-50,223,o),
(-50,250,c),
(-51,300,o),
(-50,301,o),
(0,300,c),
(28,299,o),
(132,217,o),
(155,117,c),
(155,117,o),
(164,409,o),
(149,459,c),
(140,492,o),
(90,369,o),
(65,401,c),
(11,467,o),
(120,598,o),
(198,600,c),
(269,601,o),
(250,425,o),
(250,425,c),
(250,425,o),
(350,596,o),
(451,600,c),
(568,600,o),
(651,548,o),
(650,498,c),
(649,450,o),
(641,443,o),
(610,442,c),
(569,441,o),
(606,499,o),
(449,498,c),
(351,497,o),
(249,297,o),
(249,297,c),
(249,297,o),
(381,399,o),
(450,399,c),
(546,399,o),
(651,299,o),
(650,197,c),
(650,187,o),
(649,178,o),
(647,169,c),
(664,178,o),
(696,201,o),
(715,212,c),
(756,236,o),
(786,300,o),
(804,300,c),
(852,301,o),
(851,300,o),
(850,250,c),
(850,234,o),
(795,168,o),
(728,126,c),
(692,103,o),
(619,54,o),
(573,32,c)
);
},
{
attr = {
fillColor = (0,255);
};
closed = 1;
nodes = (
(382,313,o),
(306,256,o),
(306,186,c),
(306,115,o),
(382,55,o),
(450,66,c),
(513,77,o),
(542,113,o),
(554,186,c),
(565,255,o),
(518,313,o),
(450,313,c)
);
}
);
width = 800;
}
);
unicode = 97;
},
{
glyphname = b;
lastChange = "2021-05-18 16:06:33 +0000";
layers = (
{
layerId = m01;
shapes = (
{
attr = {
fillColor = (0,255);
};
closed = 1;
nodes = (
(-50,300,o),
(-50,300,o),
(-50,250,c),
(-50,200,o),
(57,0,o),
(250,0,c),
(547,1,o),
(750,220,o),
(750,250,c),
(750,300,o),
(750,300,o),
(704,300,c),
(677,299,o),
(635,229,o),
(564,180,c),
(500,136,o),
(423,113,o),
(400,105,c),
(350,88,o),
(171,54,o),
(144,210,c),
(132,279,o),
(286,398,o),
(286,398,c),
(286,398,o),
(266,305,o),
(318,246,c),
(341,220,o),
(411,204,o),
(459,215,c),
(528,231,o),
(649,305,o),
(651,399,c),
(652,466,o),
(417,525,o),
(437,600,c),
(456,671,o),
(449,801,o),
(396,800,c),
(350,799,o),
(250,732,o),
(250,701,c),
(250,680,o),
(266,648,o),
(284,648,c),
(292,648,o),
(298,661,o),
(312,673,c),
(327,687,o),
(350,701,o),
(350,701,c),
(307,499,l),
(307,499,o),
(207,428,o),
(164,388,c),
(124,352,o),
(57,263,o),
(57,263,c),
(57,263,o),
(17,300,o),
(0,300,c)
);
},
{
attr = {
fillColor = (0,255);
};
closed = 1;
nodes = (
(417,501,o),
(427,481,o),
(451,465,c),
(489,440,o),
(552,418,o),
(551,385,c),
(548,306,o),
(438,286,o),
(402,310,c),
(370,333,o),
(417,501,o),
(417,501,c)
);
}
);
width = 700;
}
);
unicode = 98;
},
{
glyphname = c;
lastChange = "2021-05-18 16:20:37 +0000";
layers = (
{
layerId = m01;
shapes = (
{
attr = {
fillColor = (0,255);
};
closed = 1;
nodes = (
(-50,300,o),
(-50,300,o),
(-50,250,c),
(-49,199,o),
(32,80,o),
(83,0,c),
(165,-128,o),
(328,-200,o),
(395,-200,c),
(418,-200,o),
(456,-171,o),
(455,-154,c),
(449,-104,o),
(360,-80,o),
(335,-73,c),
(259,-51,o),
(166,70,o),
(168,161,c),
(169,251,o),
(331,499,o),
(411,468,c),
(488,438,o),
(406,165,o),
(495,113,c),
(576,67,o),
(749,198,o),
(750,250,c),
(750,300,o),
(750,300,o),
(700,300,c),
(675,300,o),
(611,207,o),
(577,225,c),
(523,254,o),
(576,600,o),
(500,600,c),
(196,602,o),
(62,203,o),
(62,203,c),
(62,203,o),
(20,299,o),
(0,300,c)
);
}
);
width = 700;
}
);
unicode = 99;
},
{
glyphname = d;
lastChange = "2021-05-20 16:18:18 +0000";
layers = (
{
layerId = m01;
shapes = (
{
attr = {
fillColor = (0,255);
};
closed = 1;
nodes = (
(-50,300,o),
(-50,300,o),
(-50,250,c),
(-51,183,o),
(51,0,o),
(250,0,c),
(332,1,o),
(449,65,o),
(450,148,c),
(450,234,o),
(453,434,o),
(453,434,c),
(453,434,o),
(536,444,o),
(599,373,c),
(625,344,o),
(644,285,o),
(651,251,c),
(655,228,o),
(683,201,o),
(700,200,c),
(750,200,o),
(750,200,o),
(750,250,c),
(751,290,o),
(722,387,o),
(676,437,c),
(582,540,o),
(451,536,o),
(451,536,c),
(451,536,o),
(463,800,o),
(398,800,c),
(359,800,o),
(250,735,o),
(251,701,c),
(252,682,o),
(268,656,o),
(284,655,c),
(301,655,o),
(350,699,o),
(350,699,c),
(351,527,l),
(351,527,o),
(245,491,o),
(151,405,c),
(75,336,o),
(59,246,o),
(59,246,c),
(59,246,o),
(15,300,o),
(0,300,c)
);
},
{
attr = {
fillColor = (0,255);
};
closed = 1;
nodes = (
(349,425,o),
(349,201,o),
(347,145,c),
(345,112,o),
(284,76,o),
(237,91,c),
(195,105,o),
(146,170,o),
(147,202,c),
(150,356,o),
(349,425,o),
(349,425,c)
);
}
);
width = 700;
}
);
unicode = 100;
},
{
glyphname = e;
lastChange = "2021-05-22 15:03:33 +0000";
layers = (
{
layerId = m01;
shapes = (
{
attr = {
fillColor = (0,255);
};
closed = 1;
nodes = (
(-50,300,o),
(-50,300,o),
(-50,250,c),
(-50,234,o),
(-50,200,o),
(0,200,c),
(24,200,o),
(117,240,o),
(147,240,c),
(222,240,o),
(450,240,o),
(450,240,c),
(450,240,o),
(426,178,o),
(396,146,c),
(366,114,o),
(252,98,o),
(250,46,c),
(250,24,o),
(275,0,o),
(300,0,c),
(481,0,o),
(553,238,o),
(553,238,c),
(553,238,o),
(599,199,o),
(600,199,c),
(652,200,o),
(650,209,o),
(650,250,c),
(650,300,o),
(653,300,o),
(608,310,c),
(584,315,o),
(571,322,o),
(566,368,c),
(549,518,o),
(376,600,o),
(287,600,c),
(200,600,o),
(49,499,o),
(51,448,c),
(53,426,o),
(74,400,o),
(96,399,c),
(134,398,o),
(153,502,o),
(288,501,c),
(450,500,o),
(450,340,o),
(450,340,c),
(450,340,o),
(255,340,o),
(181,340,c),
(136,340,o),
(32,299,o),
(0,300,c)
);
}
);
width = 600;
}
);
unicode = 101;
},
{
glyphname = f;
lastChange = "2021-05-22 15:07:51 +0000";
layers = (
{
layerId = m01;
shapes = (
{
attr = {
fillColor = (0,255);
};
closed = 1;
nodes = (
(-50,300,o),
(-50,300,o),
(-50,250,c),
(-50,243,o),
(-21,219,o),
(-3,173,c),
(25,102,o),
(34,0,o),
(100,0,c),
(173,0,o),
(198,301,o),
(225,524,c),
(237,629,o),
(286,700,o),
(350,699,c),
(402,698,o),
(470,669,o),
(480,614,c),
(497,520,o),
(497,392,o),
(531,300,c),
(561,217,o),
(667,203,o),
(700,203,c),
(748,202,o),
(751,202,o),
(750,250,c),
(750,300,o),
(750,300,o),
(700,300,c),
(669,301,o),
(625,335,o),
(617,373,c),
(598,464,o),
(607,556,o),
(583,651,c),
(562,734,o),
(450,800,o),
(350,800,c),
(217,800,o),
(129,677,o),
(109,540,c),
(84,370,o),
(65,219,o),
(65,219,c),
(65,219,o),
(20,300,o),
(0,300,c)
);
}
);
width = 700;
}
);
unicode = 102;
},
{
glyphname = g;
lastChange = "2021-05-22 15:17:34 +0000";
layers = (
{
layerId = m01;
shapes = (
{
attr = {
fillColor = (0,255);
};
closed = 1;
nodes = (
(-50,300,o),
(-50,300,o),
(-50,250,c),
(-49,198,o),
(296,-1,o),
(350,0,c),
(488,1,o),
(127,224,o),
(126,340,c),
(123,620,o),
(450,701,o),
(450,701,c),
(448,631,l),
(448,631,o),
(338,631,o),
(339,599,c),
(339,540,o),
(450,541,o),
(450,541,c),
(450,541,o),
(449,489,o),
(449,464,c),
(449,437,o),
(382,412,o),
(385,384,c),
(387,355,o),
(425,298,o),
(465,295,c),
(524,291,o),
(607,201,o),
(700,200,c),
(750,200,o),
(751,233,o),
(750,250,c),
(750,300,o),
(750,300,o),
(700,300,c),
(662,300,o),
(596,335,o),
(552,353,c),
(470,387,o),
(551,419,o),
(551,462,c),
(550,508,o),
(550,541,o),
(550,541,c),
(550,541,o),
(697,539,o),
(697,599,c),
(697,628,o),
(550,630,o),
(550,630,c),
(550,630,o),
(551,661,o),
(551,700,c),
(550,751,o),
(525,800,o),
(495,800,c),
(302,800,o),
(145,636,o),
(71,525,c),
(-31,372,o),
(70,231,o),
(70,231,c),
(70,231,o),
(23,299,o),
(0,300,c)
);
}
);
width = 700;
}
);
unicode = 103;
},
{
glyphname = h;
lastChange = "2021-05-22 15:28:11 +0000";
layers = (
{
layerId = m01;
shapes = (
{
attr = {
fillColor = (0,255);
};
closed = 1;
nodes = (
(-50,300,o),
(-50,300,o),
(-50,250,c),
(-50,234,o),
(-16,214,o),
(0,198,c),
(41,157,o),
(154,0,o),
(200,0,c),
(240,0,o),
(250,62,o),
(250,100,c),
(250,145,o),
(249,258,o),
(249,258,c),
(303,277,o),
(351,300,o),
(393,329,c),
(393,329,o),
(547,254,o),
(549,199,c),
(551,145,o),
(344,0,o),
(400,0,c),
(446,0,o),
(585,74,o),
(615,126,c),
(642,173,o),
(680,181,o),
(703,202,c),
(720,218,o),
(750,233,o),
(750,250,c),
(750,300,o),
(750,300,o),
(700,300,c),
(674,300,o),
(602,299,o),
(602,299,c),
(558,337,o),
(509,366,o),
(456,389,c),
(496,421,o),
(556,473,o),
(555,500,c),
(552,543,o),
(469,569,o),
(427,524,c),
(419,516,o),
(446,476,o),
(388,438,c),
(336,403,o),
(272,354,o),
(250,350,c),
(250,350,o),
(250,621,o),
(250,701,c),
(250,754,o),
(200,800,o),
(150,800,c),
(115,800,o),
(49,705,o),
(50,641,c),
(50,621,o),
(150,679,o),
(150,679,c),
(151,199,l),
(151,199,o),
(39,299,o),
(0,300,c)
);
}
);
width = 700;
}
);
unicode = 104;
},
{
glyphname = i;
lastChange = "2021-05-24 14:13:24 +0000";
layers = (
{
layerId = m01;
shapes = (
{
attr = {
fillColor = (0,255);
};
closed = 1;
nodes = (
(-50,300,o),
(-50,300,o),
(-50,250,c),
(-50,231,o),
(20,206,o),
(90,136,c),
(156,68,o),
(188,1,o),
(251,0,c),
(277,0,o),
(310,22,o),
(310,60,c),
(311,104,o),
(313,131,o),
(313,131,c),
(313,131,o),
(367,156,o),
(397,181,c),
(428,207,o),
(450,228,o),
(450,250,c),
(450,300,o),
(450,300,o),
(400,300,c),
(377,299,o),
(309,243,o),
(309,243,c),
(309,243,o),
(310,506,o),
(312,583,c),
(313,629,o),
(299,700,o),
(250,700,c),
(206,700,o),
(179,658,o),
(146,633,c),
(114,609,o),
(35,595,o),
(49,548,c),
(75,458,o),
(209,567,o),
(209,567,c),
(208,124,l),
(208,124,o),
(185,166,o),
(144,211,c),
(98,261,o),
(23,300,o),
(0,300,c)
);
}
);
width = 400;
}
);
unicode = 105;
},
{
glyphname = j;
lastChange = "2021-05-24 14:49:43 +0000";
layers = (
{
layerId = m01;
shapes = (
{
attr = {
fillColor = (0,255);
};
closed = 1;
nodes = (
(-50,300,o),
(-50,300,o),
(-50,250,c),
(-50,196,o),
(206,-1,o),
(300,0,c),
(388,0,o),
(550,63,o),
(551,99,c),
(551,134,o),
(497,146,o),
(457,147,c),
(415,147,o),
(351,99,o),
(301,99,c),
(249,99,o),
(159,200,o),
(156,249,c),
(153,297,o),
(204,381,o),
(204,381,c),
(204,380,o),
(353,381,o),
(420,380,c),
(456,379,o),
(556,201,o),
(600,200,c),
(650,200,o),
(650,200,o),
(650,250,c),
(650,300,o),
(504,469,o),
(450,470,c),
(369,472,o),
(230,470,o),
(230,470,c),
(230,470,o),
(250,530,o),
(250,552,c),
(251,590,o),
(251,656,o),
(250,700,c),
(250,736,o),
(234,800,o),
(200,800,c),
(160,800,o),
(141,745,o),
(115,722,c),
(93,701,o),
(41,675,o),
(51,656,c),
(81,601,o),
(153,656,o),
(153,656,c),
(56,252,l),
(56,252,o),
(18,300,o),
(0,300,c)
);
}
);
width = 600;
}
);
unicode = 106;
},
{
glyphname = k;
lastChange = "2021-05-24 14:43:50 +0000";
layers = (
{
layerId = m01;
shapes = (
{
attr = {
fillColor = (0,255);
};
closed = 1;
nodes = (
(-50,300,o),
(-50,300,o),
(-50,250,c),
(-50,216,o),
(59,103,o),
(97,122,c),
(132,141,o),
(157,337,o),
(193,366,c),
(255,417,o),
(451,555,o),
(451,445,c),
(451,301,o),
(280,288,o),
(228,230,c),
(176,172,o),
(237,70,o),
(214,-1,c),
(190,-72,o),
(52,-200,o),
(100,-200,c),
(150,-200,o),
(277,-55,o),
(317,1,c),
(343,39,o),
(295,129,o),
(330,180,c),
(350,208,o),
(491,293,o),
(493,287,c),
(493,287,o),
(553,200,o),
(600,200,c),
(650,200,o),
(650,200,o),
(650,250,c),
(650,297,o),
(576,382,o),
(568,408,c),
(547,473,o),
(512,599,o),
(450,600,c),
(390,601,o),
(301,499,o),
(250,500,c),
(191,502,o),
(241,601,o),
(185,600,c),
(144,600,o),
(58,513,o),
(50,468,c),
(50,395,o),
(105,448,o),
(107,406,c),
(109,353,o),
(69,253,o),
(69,253,c),
(69,253,o),
(19,300,o),
(0,300,c)
);
}
);
width = 600;
}
);
unicode = 107;
},
{
glyphname = l;
lastChange = "2021-05-26 20:50:04 +0000";
layers = (
{
layerId = m01;
shapes = (
{
attr = {
fillColor = (0,255);
};
closed = 1;
nodes = (
(-50,300,o),
(-50,300,o),
(-50,250,c),
(-51,197,o),
(33,3,o),
(111,0,c),
(192,-2,o),
(263,0,o),
(350,0,c),
(434,0,o),
(551,195,o),
(550,250,c),
(550,300,o),
(550,300,o),
(500,300,c),
(458,300,o),
(399,100,o),
(300,102,c),
(200,103,o),
(200,103,o),
(199,201,c),
(199,296,o),
(198,603,o),
(198,699,c),
(197,733,o),
(175,800,o),
(150,800,c),
(120,800,o),
(50,698,o),
(49,648,c),
(49,598,o),
(108,649,o),
(108,649,c),
(106,142,l),
(106,142,o),
(31,300,o),
(0,300,c)
);
}
);
width = 500;
}
);
unicode = 108;
},
{
glyphname = m;
lastChange = "2021-06-14 22:06:34 +0000";
layers = (
{
layerId = m01;
shapes = (
{
attr = {
fillColor = (0,255);
};
closed = 1;
nodes = (
(-50,300,o),
(-50,300,o),
(-50,250,c),
(-51,193,o),
(150,1,o),
(200,0,c),
(250,0,o),
(250,33,o),
(250,50,c),
(249,67,o),
(222,101,o),
(198,100,c),
(158,100,o),
(111,216,o),
(110,273,c),
(108,339,o),
(127,500,o),
(150,500,c),
(173,501,o),
(232,376,o),
(249,299,c),
(271,204,o),
(396,1,o),
(450,0,c),
(500,0,o),
(550,13,o),
(550,50,c),
(550,73,o),
(550,100,o),
(500,100,c),
(430,96,o),
(371,258,o),
(349,297,c),
(324,345,o),
(304,460,o),
(304,460,c),
(304,460,o),
(352,502,o),
(400,501,c),
(450,501,o),
(462,373,o),
(489,303,c),
(525,213,o),
(600,1,o),
(700,0,c),
(726,-1,o),
(774,37,o),
(805,90,c),
(839,149,o),
(850,224,o),
(850,250,c),
(850,300,o),
(850,300,o),
(800,300,c),
(735,300,o),
(756,103,o),
(696,104,c),
(669,104,o),
(620,244,o),
(597,302,c),
(548,422,o),
(482,604,o),
(400,600,c),
(353,597,o),
(285,526,o),
(285,526,c),
(285,526,o),
(250,600,o),
(150,600,c),
(109,600,o),
(71,556,o),
(51,499,c),
(18,404,o),
(20,278,o),
(20,278,c),
(20,278,o),
(11,300,o),
(0,300,c)
);
}
);
width = 800;
}
);
unicode = 109;
},
{
glyphname = n;
lastChange = "2021-06-14 22:19:27 +0000";
layers = (
{
layerId = m01;
shapes = (
{
attr = {
fillColor = (0,255);
};
closed = 1;
nodes = (
(-50,300,o),
(-50,300,o),
(-50,250,c),
(-52,196,o),
(100,0,o),
(150,0,c),
(195,1,o),
(200,64,o),
(200,100,c),
(201,136,o),
(200,200,o),
(200,200,c),
(200,200,o),
(300,100,o),
(450,100,c),
(520,100,o),
(649,254,o),
(649,254,c),
(649,254,o),
(683,200,o),
(700,200,c),
(750,200,o),
(750,200,o),
(750,250,c),
(752,302,o),
(550,500,o),
(550,500,c),
(550,500,o),
(581,500,o),
(600,500,c),
(618,500,o),
(651,533,o),
(650,550,c),
(650,566,o),
(625,600,o),
(600,600,c),
(566,601,o),
(485,600,o),
(450,600,c),
(420,600,o),
(400,567,o),
(400,550,c),
(400,534,o),
(435,520,o),
(450,500,c),
(479,466,o),
(551,398,o),
(551,348,c),
(551,298,o),
(505,200,o),
(450,200,c),
(300,200,o),
(200,300,o),
(200,300,c),
(200,300,o),
(200,448,o),
(200,500,c),
(201,538,o),
(175,600,o),
(150,600,c),
(124,600,o),
(31,528,o),
(50,499,c),
(70,468,o),
(100,500,o),
(100,500,c),
(100,200,l),
(100,200,o),
(27,300,o),
(0,300,c)
);
}
);
width = 700;
}
);
unicode = 110;
},
{
glyphname = o;
lastChange = "2021-05-26 20:52:42 +0000";
layers = (
{
layerId = m01;
shapes = (
{
attr = {
fillColor = (0,255);
};
closed = 1;
nodes = (
(-50,300,o),
(-50,300,o),
(-50,250,c),
(-50,192,o),
(84,-3,o),
(200,0,c),
(451,4,o),
(551,299,o),
(551,299,c),
(551,299,o),
(580,199,o),
(600,200,c),
(650,200,o),
(650,200,o),
(650,250,c),
(652,300,o),
(534,600,o),
(400,600,c),
(95,600,o),
(28,257,o),
(28,257,c),
(28,257,o),
(13,301,o),
(0,300,c)
);
},
{
attr = {
fillColor = (0,255);
};
closed = 1;
nodes = (
(461,476,o),
(478,350,o),
(422,231,c),
(367,111,o),
(260,43,o),
(183,79,c),
(107,114,o),
(91,240,o),
(146,359,c),
(202,479,o),
(309,547,o),
(385,511,c)
);
}
);
width = 600;
}
);
unicode = 111;
},
{
glyphname = p;
lastChange = "2021-06-14 22:23:12 +0000";
layers = (
{
layerId = m01;
shapes = (
{
attr = {
fillColor = (0,255);
};
closed = 1;
nodes = (
(250,400,o),
(251,146,o),
(251,146,c),
(251,146,o),
(146,205,o),
(147,254,c),
(148,301,o),
(150,500,o),
(350,500,c),
(452,499,o),
(466,450,o),
(500,450,c),
(550,450,o),
(550,450,o),
(550,500,c),
(550,553,o),
(450,600,o),
(350,600,c),
(48,598,o),
(51,251,o),
(51,251,c),
(51,251,o),
(12,301,o),
(0,300,c),
(-50,300,o),
(-50,300,o),
(-50,250,c),
(-50,233,o),
(-24,215,o),
(-7,199,c),
(118,82,o),
(250,43,o),
(250,43,c),
(250,43,o),
(245,-5,o),
(211,-51,c),
(183,-89,o),
(50,-200,o),
(96,-200,c),
(151,-200,o),
(255,-104,o),
(294,-62,c),
(351,-1,o),
(353,46,o),
(353,46,c),
(353,46,o),
(454,70,o),
(493,99,c),
(531,128,o),
(582,222,o),
(582,222,c),
(582,222,o),
(589,200,o),
(600,200,c),
(650,200,o),
(650,200,o),
(650,250,c),
(650,264,o),
(648,323,o),
(622,343,c),
(588,368,o),
(549,400,o),
(450,400,c)
);
},
{
attr = {
fillColor = (0,255);
};
closed = 1;
nodes = (
(352,138,o),
(352,301,o),
(450,301,c),
(503,302,o),
(502,270,o),
(501,244,c),
(500,148,o),
(352,138,o),
(352,138,c)
);
}
);
width = 600;
}
);
unicode = 112;
},
{
glyphname = q;
lastChange = "2021-06-14 22:26:50 +0000";
layers = (
{
layerId = m01;
shapes = (
{
attr = {
fillColor = (0,255);
};
closed = 1;
nodes = (
(0,300,o),
(-50,300,o),
(-50,250,c),
(-49,194,o),
(50,143,o),
(101,141,c),
(149,140,o),
(151,199,o),
(150,100,c),
(150,3,o),
(49,-99,o),
(50,-150,c),
(50,-200,o),
(50,-200,o),
(98,-200,c),
(148,-200,o),
(249,-2,o),
(249,147,c),
(249,197,o),
(250,300,o),
(202,300,c),
(151,299,o),
(148,248,o),
(101,249,c),
(75,249,o),
(154,501,o),
(300,500,c),
(445,500,o),
(451,400,o),
(451,301,c),
(452,199,o),
(436,0,o),
(451,0,c),
(550,-1,o),
(551,299,o),
(551,299,c),
(551,299,o),
(583,200,o),
(600,200,c),
(650,200,o),
(650,200,o),
(650,250,c),
(649,331,o),
(549,600,o),
(300,600,c),
(51,600,o),
(0,300,o),
(0,300,c)
);
}
);
width = 600;
}
);
unicode = 113;
},
{
glyphname = r;
lastChange = "2021-06-14 22:39:41 +0000";
layers = (
{
layerId = m01;
shapes = (
{
attr = {
fillColor = (0,255);
};
closed = 1;
nodes = (
(-50,300,o),
(-50,300,o),
(-50,250,c),
(-49,196,o),
(93,100,o),
(150,100,c),
(200,100,o),
(250,151,o),
(250,200,c),
(250,254,o),
(249,346,o),
(250,400,c),
(251,457,o),
(300,500,o),
(350,500,c),
(400,500,o),
(450,500,o),
(450,450,c),
(451,405,o),
(350,350,o),
(350,300,c),
(350,200,o),
(350,100,o),
(350,0,c),
(350,-100,o),
(350,-200,o),
(500,-200,c),
(649,-200,o),
(751,200,o),
(750,250,c),
(750,300,o),
(750,300,o),
(700,300,c),
(647,300,o),
(550,-100,o),
(500,-100,c),
(451,-99,o),
(450,-50,o),
(450,0,c),
(450,100,o),
(448,198,o),
(449,299,c),
(450,351,o),
(550,352,o),
(550,450,c),
(550,557,o),
(449,599,o),
(350,600,c),
(301,600,o),
(271,580,o),
(245,555,c),
(221,531,o),
(185,599,o),
(150,600,c),
(116,600,o),
(50,550,o),
(50,450,c),
(50,400,o),
(150,550,o),
(150,500,c),
(150,450,o),
(150,200,o),
(150,200,c),
(100,200,o),
(51,301,o),
(0,300,c)
);
}
);
width = 700;
}
);
unicode = 114;
},
{
glyphname = s;
lastChange = "2021-07-10 18:08:23 +0000";
layers = (
{
layerId = m01;
shapes = (
{
attr = {
fillColor = (0,255);
};
closed = 1;
nodes = (
(-50,300,o),
(-50,300,o),
(-50,250,c),
(-50,200,o),
(0,0,o),
(50,0,c),
(100,0,o),
(150,50,o),
(150,100,c),
(150,150,o),
(150,200,o),
(150,200,c),
(150,200,o),
(251,273,o),
(300,275,c),
(349,275,o),
(449,254,o),
(449,198,c),
(450,140,o),
(295,0,o),
(350,0,c),
(550,0,o),
(550,219,o),
(550,219,c),
(550,219,o),
(582,199,o),
(600,200,c),
(650,200,o),
(650,200,o),
(650,250,c),
(650,300,o),
(650,300,o),
(600,300,c),
(550,300,o),
(400,375,o),
(300,375,c),
(250,375,o),
(150,300,o),
(150,300,c),
(150,300,o),
(149,353,o),
(150,400,c),
(151,494,o),
(248,500,o),
(301,500,c),
(448,499,o),
(454,400,o),
(500,400,c),
(551,401,o),
(550,450,o),
(550,500,c),
(550,550,o),
(400,600,o),
(300,600,c),
(200,600,o),
(50,500,o),
(50,400,c),
(50,352,o),
(50,200,o),
(50,200,c),
(50,200,o),
(25,300,o),
(0,300,c)
);
}
);
width = 600;
}
);
unicode = 115;
},
{
glyphname = t;
lastChange = "2021-07-10 18:42:39 +0000";
layers = (
{
layerId = m01;
shapes = (
{
attr = {
fillColor = (0,255);
};
closed = 1;
nodes = (
(0,700,o),
(-50,292,o),
(-50,250,c),
(-50,200,o),
(-50,200,o),
(0,200,c),
(50,200,o),
(50,600,o),
(250,600,c),
(300,600,o),
(350,550,o),
(350,500,c),
(350,400,o),
(350,200,o),
(350,100,c),
(350,50,o),
(350,0,o),
(400,0,c),
(450,0,o),
(550,203,o),
(550,250,c),
(550,300,o),
(550,300,o),
(500,300,c),
(482,300,o),
(451,201,o),
(451,201,c),
(451,201,o),
(450,400,o),
(450,500,c),
(450,600,o),
(350,700,o),
(250,700,c)
);
}
);
width = 500;
}
);
unicode = 116;
},
{
glyphname = u;
lastChange = "2021-07-10 18:46:49 +0000";
layers = (
{
layerId = m01;
shapes = (
{
attr = {
fillColor = (0,255);
};
closed = 1;
nodes = (
(-50,300,o),
(-50,300,o),
(-50,250,c),
(-48,200,o),
(50,0,o),
(250,0,c),
(350,0,o),
(401,109,o),
(401,200,c),
(401,305,o),
(504,503,o),
(552,501,c),
(604,500,o),
(650,353,o),
(650,300,c),
(650,244,o),
(450,100,o),
(450,50,c),
(450,0,o),
(450,0,o),
(500,0,c),
(554,1,o),
(750,243,o),
(750,300,c),
(750,300,o),
(749,201,o),
(800,200,c),
(850,200,o),
(850,200,o),
(850,250,c),
(850,300,o),
(850,600,o),
(550,600,c),
(450,600,o),
(303,296,o),
(302,199,c),
(302,98,o),
(301,100,o),
(250,100,c),
(192,100,o),
(149,139,o),
(151,201,c),
(152,255,o),
(350,500,o),
(350,550,c),
(350,600,o),
(303,599,o),
(250,600,c),
(200,601,o),
(100,601,o),
(100,550,c),
(100,501,o),
(200,498,o),
(200,450,c),
(201,399,o),
(98,355,o),
(100,300,c),
(100,300,o),
(50,300,o),
(0,300,c)
);
}
);
width = 800;
}
);
unicode = 117;
},
{
glyphname = v;
lastChange = "2021-07-10 18:55:34 +0000";
layers = (
{
layerId = m01;
shapes = (
{
attr = {
fillColor = (0,255);
};
closed = 1;
nodes = (
(-50,300,o),
(-50,300,o),
(-50,250,c),
(-50,199,o),
(50,0,o),
(100,0,c),
(150,0,o),
(150,0,o),
(150,50,c),
(150,100,o),
(606,300,o),
(607,397,c),
(607,398,o),
(647,199,o),
(700,200,c),
(750,200,o),
(750,200,o),
(750,250,c),
(750,300,o),
(709,495,o),
(649,550,c),
(599,595,o),
(513,600,o),
(500,600,c),
(447,599,o),
(448,597,o),
(449,551,c),
(449,501,o),
(450,500,o),
(500,500,c),
(542,498,o),
(549,498,o),
(550,451,c),
(552,399,o),
(150,201,o),
(150,150,c),
(150,100,o),
(150,500,o),
(150,550,c),
(150,600,o),
(150,600,o),
(100,600,c),
(48,600,o),
(0,560,o),
(0,500,c),
(0,450,o),
(50,450,o),
(50,450,c),
(50,200,l),
(50,200,o),
(50,300,o),
(0,300,c)
);
}
);
width = 700;
}
);
unicode = 118;
},
{
glyphname = w;
lastChange = "2021-07-12 16:44:47 +0000";
layers = (
{
layerId = m01;
shapes = (
{
attr = {
fillColor = (0,255);
};
closed = 1;
nodes = (
(-50,300,o),
(-50,300,o),
(-50,250,c),
(-50,206,o),
(49,1,o),
(103,0,c),
(128,-1,o),
(246,80,o),
(353,170,c),
(457,257,o),
(550,352,o),
(550,400,c),
(550,450,o),
(550,450,o),
(550,450,c),
(550,450,o),
(700,550,o),
(700,450,c),
(699,399,o),
(632,264,o),
(551,200,c),
(407,85,o),
(151,-1,o),
(250,0,c),
(308,0,o),
(426,17,o),
(551,97,c),
(657,165,o),
(750,298,o),
(750,298,c),
(750,298,o),
(750,201,o),
(800,200,c),
(850,200,o),
(850,200,o),
(850,250,c),
(850,300,o),
(847,600,o),
(698,601,c),
(598,601,o),
(550,500,o),
(550,500,c),
(550,500,o),
(501,600,o),
(450,600,c),
(400,600,o),
(350,550,o),
(350,500,c),
(350,450,o),
(450,450,o),
(450,400,c),
(451,343,o),
(154,158,o),
(154,158,c),
(154,158,o),
(200,450,o),
(200,500,c),
(199,548,o),
(200,600,o),
(150,600,c),
(97,599,o),
(50,600,o),
(50,550,c),
(50,501,o),
(100,550,o),
(100,500,c),
(101,400,o),
(49,200,o),
(49,200,c),
(49,200,o),
(51,299,o),
(0,300,c)
);
}
);
width = 800;
}
);
unicode = 119;
},
{
glyphname = x;
lastChange = "2021-07-15 13:05:17 +0000";
layers = (
{
layerId = m01;
shapes = (
{
attr = {
fillColor = (0,255);
};
closed = 1;
nodes = (
(-50,300,o),
(-50,300,o),
(-50,250,c),
(-50,223,o),
(-35,166,o),
(-1,107,c),
(29,56,o),
(77,0,o),
(100,0,c),
(150,0,o),
(149,47,o),
(149,98,c),
(149,150,o),
(293,223,o),
(293,223,c),
(293,223,o),
(399,-1,o),
(500,0,c),
(554,0,o),
(605,2,o),
(606,50,c),
(607,99,o),
(550,99,o),
(498,99,c),
(451,100,o),
(379,267,o),
(379,267,c),
(379,267,o),
(441,296,o),
(497,333,c),
(549,368,o),
(595,412,o),
(595,412,c),
(595,412,o),
(627,369,o),
(651,318,c),
(676,264,o),
(648,200,o),
(700,200,c),
(750,200,o),
(750,200,o),
(750,250,c),
(751,265,o),
(745,339,o),
(714,401,c),
(665,498,o),
(616,600,o),
(550,600,c),
(503,600,o),
(503,598,o),
(503,551,c),
(503,501,o),
(551,556,o),
(551,500,c),
(550,443,o),
(350,348,o),
(350,348,c),
(350,348,o),
(203,600,o),
(150,600,c),
(50,600,o),
(0,600,o),
(0,550,c),
(0,500,o),
(52,504,o),
(100,500,c),
(152,497,o),
(251,302,o),
(251,302,c),
(251,302,o),
(195,270,o),
(169,250,c),
(137,225,o),
(59,149,o),
(59,149,c),
(59,149,o),
(43,186,o),
(30,222,c),
(17,257,o),
(14,300,o),
(0,300,c)
);
}
);
width = 700;
}
);
unicode = 120;
},
{
glyphname = y;
lastChange = "2021-07-15 13:10:57 +0000";
layers = (
{
layerId = m01;
shapes = (
{
attr = {
fillColor = (0,255);
};
closed = 1;
nodes = (
(-50,300,o),
(-50,300,o),
(-50,250,c),
(-50,228,o),
(67,165,o),
(68,47,c),
(69,-53,o),
(1,-97,o),
(0,-150,c),
(0,-200,o),
(0,-200,o),
(50,-200,c),
(103,-198,o),
(108,-98,o),
(201,-3,c),
(254,51,o),
(369,131,o),
(450,200,c),
(545,281,o),
(608,365,o),
(608,365,c),
(608,365,o),
(636,323,o),
(649,295,c),
(669,252,o),
(671,200,o),
(700,200,c),
(750,200,o),
(750,200,o),
(750,250,c),
(751,285,o),
(706,408,o),
(652,500,c),
(619,556,o),
(587,599,o),
(549,599,c),
(513,600,o),
(450,600,o),
(450,550,c),
(451,502,o),
(550,548,o),
(551,444,c),
(551,412,o),
(508,354,o),
(450,299,c),
(347,201,o),
(202,102,o),
(202,102,c),
(202,102,o),
(299,398,o),
(300,500,c),
(300,547,o),
(248,600,o),
(200,600,c),
(147,600,o),
(100,602,o),
(100,550,c),
(100,497,o),
(200,550,o),
(200,500,c),
(200,402,o),
(132,171,o),
(132,171,c),
(132,171,o),
(49,301,o),
(0,300,c)
);
}
);
width = 700;
}
);
unicode = 121;
},
{
glyphname = z;
lastChange = "2021-07-15 13:20:25 +0000";
layers = (
{
layerId = m01;
shapes = (
{
attr = {
fillColor = (0,255);
};
closed = 1;
nodes = (
(-50,300,o),
(-50,300,o),
(-50,250,c),
(-51,206,o),
(50,0,o),
(100,0,c),
(150,0,o),
(195,20,o),
(249,64,c),
(305,111,o),
(350,175,o),
(350,175,c),
(350,175,o),
(350,0,o),
(400,0,c),
(450,0,o),
(550,0,o),
(550,50,c),
(550,100,o),
(477,69,o),
(465,99,c),
(448,140,o),
(452,291,o),
(452,291,c),
(452,291,o),
(483,305,o),
(499,320,c),
(515,336,o),
(571,384,o),
(571,384,c),
(571,384,o),
(574,350,o),
(618,295,c),
(659,243,o),
(647,204,o),
(700,200,c),
(750,200,o),
(750,200,o),
(750,250,c),
(751,283,o),
(687,349,o),
(664,443,c),
(656,477,o),
(701,493,o),
(700,550,c),
(698,595,o),
(624,600,o),
(600,600,c),
(550,600,o),
(400,600,o),
(350,600,c),
(300,600,o),
(250,600,o),
(250,550,c),
(250,500,o),
(300,500,o),
(350,500,c),
(401,500,o),
(471,500,o),
(523,501,c),
(580,501,o),
(427,394,o),
(427,394,c),
(427,394,o),
(330,514,o),
(130,318,c),
(101,290,o),
(65,198,o),
(65,198,c),
(65,198,o),
(53,225,o),
(43,251,c),
(32,276,o),
(24,300,o),
(0,300,c)
);
},
{
attr = {
fillColor = (0,255);
};
closed = 1;
nodes = (
(349,421,o),
(343,274,o),
(343,274,c),
(343,274,o),
(324,243,o),
(306,222,c),
(273,185,o),
(173,99,o),
(150,100,c),
(94,101,o),
(128,188,o),
(186,249,c)
);
}
);
width = 700;
}
);
unicode = 122;
},
